name Run_200 02_newCOP3_v24.mot
datacolumns 19
datarows 58
range 0.04 0.06850000000000001
DataType=double
version=3
OpenSimVersion=4.3-2021-08-27-4bc7ad9
endheader
time	R_ground_force_vx	R_ground_force_vy	R_ground_force_vz	R_ground_force_px	R_ground_force_py	R_ground_force_pz	L_ground_force_vx	L_ground_force_vy	L_ground_force_vz	L_ground_force_px	L_ground_force_py	L_ground_force_pz	R_ground_torque_x	R_ground_torque_y	R_ground_torque_z	L_ground_torque_x	L_ground_torque_y	L_ground_torque_z
0.04	-0.000142	-0.000108	0.009313	0	0	0	65.349762	825.410156	36.162777	0.8512729999999999	0	-0.566518	0	0	0	0	-3.928052	0
0.0405	-0.000161	-0.00012	0.009860000000000001	0	0	0	65.600296	823.766479	35.986324	0.850873	0	-0.56648	0	0	0	0	-3.838828	0
0.041	-0.000182	-0.000133	0.010441	0	0	0	65.862427	822.042786	35.803032	0.850453	0	-0.5664400000000001	0	0	0	0	-3.749349	0
0.0415	-0.000205	-0.000148	0.011057	0	0	0	66.135628	820.241699	35.613125	0.850013	0	-0.566398	0	0	0	0	-3.659652	0
0.042	-0.000231	-0.000163	0.01171	0	0	0	66.41937299999999	818.365662	35.416851	0.849554	0	-0.5663550000000001	0	0	0	0	-3.569773	0
0.0425	-0.000259	-0.00018	0.012401	0	0	0	66.713165	816.417175	35.214447	0.849077	0	-0.56631	0	0	0	0	-3.479748	0
0.043	-0.000291	-0.000198	0.013133	0	0	0	67.01649500000001	814.398499	35.006176	0.8485819999999999	0	-0.566264	0	0	0	0	-3.389614	0
0.0435	-0.000326	-0.000218	0.013905	0	0	0	67.32886499999999	812.312012	34.792305	0.84807	0	-0.566217	0	0	0	0	-3.299407	0
0.044	-0.000365	-0.000239	0.014721	0	0	0	67.64975699999999	810.159912	34.573093	0.847541	0	-0.566169	0	0	0	0	-3.209165	0
0.0445	-0.000408	-0.000262	0.015582	0	0	0	67.978683	807.9444580000001	34.348827	0.846996	0	-0.566119	0	0	0	0	-3.118923	0
0.045	-0.000456	-0.000286	0.01649	0	0	0	68.31512499999999	805.667908	34.119778	0.846436	0	-0.566069	0	0	0	0	-3.02872	0
0.0455	-0.000509	-0.000313	0.017447	0	0	0	68.658585	803.3323360000001	33.88623	0.845861	0	-0.566017	0	0	0	0	-2.938592	0
0.046	-0.000568	-0.000341	0.018455	0	0	0	69.008537	800.939941	33.64846	0.845272	0	-0.5659650000000001	0	0	0	0	-2.848576	0
0.0465	-0.000633	-0.000372	0.019516	0	0	0	69.364487	798.492859	33.406757	0.844669	0	-0.565912	0	0	0	0	-2.758709	0
0.047	-0.000705	-0.000404	0.020632	0	0	0	69.725914	795.993164	33.161404	0.8440530000000001	0	-0.565858	0	0	0	0	-2.669027	0
0.0475	-0.000785	-0.000439	0.021805	0	0	0	70.092293	793.442932	32.912674	0.843424	0	-0.565804	0	0	0	0	-2.579568	0
0.048	-0.000874	-0.000476	0.023037	0	0	0	70.463104	790.844116	32.660851	0.842784	0	-0.56575	0	0	0	0	-2.490367	0
0.0485	-0.000971	-0.000516	0.024331	0	0	0	70.837822	788.198792	32.406212	0.842132	0	-0.565694	0	0	0	0	-2.401462	0
0.049	-0.001079	-0.000558	0.025689	0	0	0	71.215935	785.5088500000001	32.149029	0.841469	0	-0.565639	0	0	0	0	-2.312889	0
0.0495	-0.001198	-0.000603	0.027113	0	0	0	71.59689299999999	782.776123	31.889572	0.840796	0	-0.5655829999999999	0	0	0	0	-2.224682	0
0.05	-0.001329	-0.000651	0.028606	0	0	0	71.98017900000001	780.002625	31.628101	0.840114	0	-0.565527	0	0	0	0	-2.136878	0
0.0505	-0.001474	-0.000701	0.03017	0	0	0	72.365257	777.190002	31.36488	0.839422	0	-0.565472	0	0	0	0	-2.049513	0
0.051	-0.001634	-0.000754	0.031807	0	0	0	72.751587	774.340027	31.100159	0.838722	0	-0.565415	0	0	0	0	-1.96262	0
0.0515	-0.001809	-0.00081	0.033521	0	0	0	73.13864100000001	771.454529	30.834187	0.838014	0	-0.5653589999999999	0	0	0	0	-1.876235	0
0.052	-0.002002	-0.000869	0.035313	0	0	0	73.52589399999999	768.535034	30.567205	0.837298	0	-0.565303	0	0	0	0	-1.790392	0
0.0525	-0.002215	-0.0009300000000000001	0.037186	0	0	0	73.912796	765.58313	30.299446	0.836575	0	-0.565248	0	0	0	0	-1.705124	0
0.053	-0.002448	-0.000995	0.039142	0	0	0	74.29884300000001	762.600403	30.031141	0.8358449999999999	0	-0.565192	0	0	0	0	-1.620464	0
0.0535	-0.002705	-0.001061	0.041185	0	0	0	74.68349499999999	759.588318	29.762506	0.835109	0	-0.565136	0	0	0	0	-1.536447	0
0.054	-0.002986	-0.00113	0.043317	0	0	0	75.066254	756.5483400000001	29.493759	0.834368	0	-0.5650810000000001	0	0	0	0	-1.453102	0
0.0545	-0.003294	-0.001201	0.045539	0	0	0	75.446609	753.481873	29.225101	0.8336209999999999	0	-0.565026	0	0	0	0	-1.370464	0
0.055	-0.003632	-0.001274	0.047856	0	0	0	75.824074	750.390137	28.956736	0.832869	0	-0.564972	0	0	0	0	-1.288561	0
0.0555	-0.004001	-0.001349	0.050268	0	0	0	76.198166	747.2744750000001	28.688848	0.832112	0	-0.564917	0	0	0	0	-1.207426	0
0.056	-0.004405	-0.001425	0.052779	0	0	0	76.568428	744.136047	28.421623	0.831352	0	-0.564864	0	0	0	0	-1.127087	0
0.0565	-0.004846	-0.001501	0.055391	0	0	0	76.93440200000001	740.976135	28.155239	0.830587	0	-0.56481	0	0	0	0	-1.047574	0
0.057	-0.005327	-0.001578	0.058107	0	0	0	77.29568500000001	737.795776	27.889862	0.8298179999999999	0	-0.564757	0	0	0	0	-0.968916	0
0.0575	-0.005852	-0.001654	0.060928	0	0	0	77.651855	734.5960690000001	27.625654	0.8290459999999999	0	-0.564705	0	0	0	0	-0.891141	0
0.058	-0.006424	-0.001729	0.063857	0	0	0	78.002548	731.377991	27.362768	0.828271	0	-0.564653	0	0	0	0	-0.8142740000000001	0
0.0585	-0.007047	-0.001803	0.066895	0	0	0	78.347397	728.142639	27.101353	0.827493	0	-0.564602	0	0	0	0	-0.738344	0
0.059	-0.007724	-0.001873	0.070046	0	0	0	78.686081	724.890869	26.841545	0.826713	0	-0.564551	0	0	0	0	-0.663375	0
0.0595	-0.008459	-0.001939	0.07331	0	0	0	79.018311	721.623596	26.583479	0.8259300000000001	0	-0.564501	0	0	0	0	-0.589392	0
0.06	-0.009257	-0.002001	0.07668999999999999	0	0	0	79.343796	718.341736	26.32728	0.825144	0	-0.564451	0	0	0	0	-0.51642	0
0.0605	-0.010122	-0.002055	0.08018699999999999	0	0	0	79.662308	715.046021	26.073072	0.824357	0	-0.564402	0	0	0	0	-0.444481	0
0.061	-0.011059	-0.002102	0.083803	0	0	0	79.973625	711.737305	25.820965	0.823567	0	-0.564354	0	0	0	0	-0.373599	0
0.0615	-0.012073	-0.00214	0.08753900000000001	0	0	0	80.277565	708.416382	25.57107	0.822776	0	-0.564306	0	0	0	0	-0.303793	0
0.062	-0.013168	-0.002167	0.091395	0	0	0	80.573967	705.083923	25.323488	0.821984	0	-0.56426	0	0	0	0	-0.235086	0
0.0625	-0.01435	-0.00218	0.095374	0	0	0	80.862694	701.740662	25.078316	0.82119	0	-0.564214	0	0	0	0	-0.167497	0
0.063	-0.015624	-0.002179	0.09947599999999999	0	0	0	81.143654	698.387207	24.835646	0.820394	0	-0.564168	0	0	0	0	-0.101045	0
0.0635	-0.016997	-0.002161	0.1037	0	0	0	81.41674	695.024231	24.595566	0.819598	0	-0.564124	0	0	0	0	-0.035747	0
0.064	-0.018473	-0.002123	0.108048	0	0	0	81.68190800000001	691.652405	24.358156	0.8188	0	-0.56408	0	0	0	-0	0.028378	-0
0.0645	-0.020059	-0.002064	0.11252	0	0	0	81.93910200000001	688.272217	24.123493	0.818002	0	-0.564037	0	0	0	-0	0.09131599999999999	-0
0.065	-0.02176	-0.001981	0.117114	0	0	0	82.188301	684.884277	23.891651	0.817203	0	-0.563995	0	0	0	-0	0.15305	-0
0.0655	-0.023584	-0.001871	0.121831	0	0	0	82.429489	681.489197	23.662701	0.816403	0	-0.563954	0	0	0	-0	0.213566	-0
0.066	-0.025535	-0.001732	0.12667	0	0	0	82.662666	678.087463	23.436701	0.815602	0	-0.563913	0	0	0	-0	0.272852	-0
0.0665	-0.02762	-0.001561	0.131629	0	0	0	82.88784800000001	674.679504	23.213717	0.814802	0	-0.563874	0	0	0	-0	0.330894	-0
0.067	-0.029845	-0.001355	0.136707	0	0	0	83.105042	671.26593	22.993803	0.814001	0	-0.563835	0	0	0	-0	0.387681	-0
0.0675	-0.032216	-0.001112	0.141902	0	0	0	83.31426999999999	667.8471070000001	22.777014	0.813201	0	-0.563797	0	0	0	-0	0.443202	-0
0.068	-0.03474	-0.000829	0.147213	0	0	0	83.515564	664.423584	22.563396	0.8124	0	-0.56376	0	0	0	-0	0.497449	-0
0.06850000000000001	-0.037421	-0.000503	0.152635	0	0	0	83.708939	660.995667	22.352997	0.8116	0	-0.563724	0	0	0	-0	0.550411	-0
